<svg xmlns="http://www.w3.org/2000/svg" viewBox="0 0 256 256" role="img" aria-label="Armour">
  <defs>
    <linearGradient id="bg" x1="0" y1="0" x2="1" y2="1">
      <stop offset="0%" stop-color="#31363e" />
      <stop offset="100%" stop-color="#5e6671" />
    </linearGradient>
    <pattern id="crosshatch" width="12" height="12" patternUnits="userSpaceOnUse" patternTransform="rotate(45)">
      <line x1="0" y1="0" x2="0" y2="12" stroke="#ffffff" stroke-opacity="0.06" stroke-width="2" />
    </pattern>
    <radialGradient id="paperFade" cx="50%" cy="45%" r="58%">
      <stop offset="0%" stop-color="#e2d8c3" stop-opacity="0.94" />
      <stop offset="100%" stop-color="#e2d8c3" stop-opacity="0.38" />
    </radialGradient>
  </defs>

  <rect x="8" y="8" width="240" height="240" rx="24" fill="url(#bg)" stroke="#111" stroke-opacity="0.55" stroke-width="4" />
  <rect x="8" y="8" width="240" height="240" rx="24" fill="url(#crosshatch)" />

  <circle cx="128" cy="128" r="90" fill="url(#paperFade)" />
  <circle cx="128" cy="128" r="82" fill="none" stroke="#6f2023" stroke-width="10" stroke-opacity="0.85" />
  <circle cx="128" cy="128" r="72" fill="none" stroke="#000" stroke-opacity="0.12" stroke-width="2" />

  <path d="M128 82 L140 110 L170 112 L146 130 L154 160 L128 146 L102 160 L110 130 L86 112 L116 110 Z" fill="none" stroke="#000" stroke-opacity="0.10" stroke-width="4" />

  <path d="M128 54 L186 76 L176 144 Q164 188 128 208 Q92 188 80 144 L70 76 Z" fill="none" stroke="#1f1d1a" stroke-width="10" />

  <circle cx="196" cy="58" r="18" fill="#6f2023" fill-opacity="0.22" stroke="#6f2023" stroke-width="2" />
  <line x1="186" y1="58" x2="206" y2="58" stroke="#6f2023" stroke-width="2" />
  <line x1="196" y1="48" x2="196" y2="68" stroke="#6f2023" stroke-width="2" />

  <rect x="14" y="14" width="228" height="228" rx="20" fill="none" stroke="#ffffff" stroke-opacity="0.20" stroke-width="2" />
</svg>
