<svg xmlns="http://www.w3.org/2000/svg" viewBox="0 0 256 256" role="img" aria-label="Computers">
  <defs>
    <linearGradient id="bg" x1="0" y1="0" x2="1" y2="1">
      <stop offset="0%" stop-color="#283744" />
      <stop offset="100%" stop-color="#4e6678" />
    </linearGradient>
    <pattern id="crosshatch" width="12" height="12" patternUnits="userSpaceOnUse" patternTransform="rotate(45)">
      <line x1="0" y1="0" x2="0" y2="12" stroke="#ffffff" stroke-opacity="0.06" stroke-width="2" />
    </pattern>
    <radialGradient id="paperFade" cx="50%" cy="45%" r="58%">
      <stop offset="0%" stop-color="#d6ccb5" stop-opacity="0.94" />
      <stop offset="100%" stop-color="#d6ccb5" stop-opacity="0.38" />
    </radialGradient>
  </defs>

  <rect x="8" y="8" width="240" height="240" rx="24" fill="url(#bg)" stroke="#111" stroke-opacity="0.55" stroke-width="4" />
  <rect x="8" y="8" width="240" height="240" rx="24" fill="url(#crosshatch)" />

  <circle cx="128" cy="128" r="90" fill="url(#paperFade)" />
  <circle cx="128" cy="128" r="82" fill="none" stroke="#7a1f22" stroke-width="10" stroke-opacity="0.85" />
  <circle cx="128" cy="128" r="72" fill="none" stroke="#000" stroke-opacity="0.12" stroke-width="2" />

  <path d="M128 82 L140 110 L170 112 L146 130 L154 160 L128 146 L102 160 L110 130 L86 112 L116 110 Z" fill="none" stroke="#000" stroke-opacity="0.10" stroke-width="4" />

  <rect x="64" y="64" width="128" height="128" rx="12" fill="none" stroke="#1f1d1a" stroke-width="10" /><rect x="96" y="96" width="64" height="64" rx="6" fill="none" stroke="#1f1d1a" stroke-width="8" /><line x1="70" y1="64" x2="70" y2="48" stroke="#1f1d1a" stroke-width="6" /><line x1="70" y1="208" x2="70" y2="192" stroke="#1f1d1a" stroke-width="6" /><line x1="86" y1="64" x2="86" y2="48" stroke="#1f1d1a" stroke-width="6" /><line x1="86" y1="208" x2="86" y2="192" stroke="#1f1d1a" stroke-width="6" /><line x1="102" y1="64" x2="102" y2="48" stroke="#1f1d1a" stroke-width="6" /><line x1="102" y1="208" x2="102" y2="192" stroke="#1f1d1a" stroke-width="6" /><line x1="118" y1="64" x2="118" y2="48" stroke="#1f1d1a" stroke-width="6" /><line x1="118" y1="208" x2="118" y2="192" stroke="#1f1d1a" stroke-width="6" /><line x1="134" y1="64" x2="134" y2="48" stroke="#1f1d1a" stroke-width="6" /><line x1="134" y1="208" x2="134" y2="192" stroke="#1f1d1a" stroke-width="6" /><line x1="150" y1="64" x2="150" y2="48" stroke="#1f1d1a" stroke-width="6" /><line x1="150" y1="208" x2="150" y2="192" stroke="#1f1d1a" stroke-width="6" /><line x1="166" y1="64" x2="166" y2="48" stroke="#1f1d1a" stroke-width="6" /><line x1="166" y1="208" x2="166" y2="192" stroke="#1f1d1a" stroke-width="6" /><line x1="182" y1="64" x2="182" y2="48" stroke="#1f1d1a" stroke-width="6" /><line x1="182" y1="208" x2="182" y2="192" stroke="#1f1d1a" stroke-width="6" /><line x1="64" y1="70" x2="48" y2="70" stroke="#1f1d1a" stroke-width="6" /><line x1="208" y1="70" x2="192" y2="70" stroke="#1f1d1a" stroke-width="6" /><line x1="64" y1="86" x2="48" y2="86" stroke="#1f1d1a" stroke-width="6" /><line x1="208" y1="86" x2="192" y2="86" stroke="#1f1d1a" stroke-width="6" /><line x1="64" y1="102" x2="48" y2="102" stroke="#1f1d1a" stroke-width="6" /><line x1="208" y1="102" x2="192" y2="102" stroke="#1f1d1a" stroke-width="6" /><line x1="64" y1="118" x2="48" y2="118" stroke="#1f1d1a" stroke-width="6" /><line x1="208" y1="118" x2="192" y2="118" stroke="#1f1d1a" stroke-width="6" /><line x1="64" y1="134" x2="48" y2="134" stroke="#1f1d1a" stroke-width="6" /><line x1="208" y1="134" x2="192" y2="134" stroke="#1f1d1a" stroke-width="6" /><line x1="64" y1="150" x2="48" y2="150" stroke="#1f1d1a" stroke-width="6" /><line x1="208" y1="150" x2="192" y2="150" stroke="#1f1d1a" stroke-width="6" /><line x1="64" y1="166" x2="48" y2="166" stroke="#1f1d1a" stroke-width="6" /><line x1="208" y1="166" x2="192" y2="166" stroke="#1f1d1a" stroke-width="6" /><line x1="64" y1="182" x2="48" y2="182" stroke="#1f1d1a" stroke-width="6" /><line x1="208" y1="182" x2="192" y2="182" stroke="#1f1d1a" stroke-width="6" />

  <circle cx="196" cy="58" r="18" fill="#7a1f22" fill-opacity="0.22" stroke="#7a1f22" stroke-width="2" />
  <line x1="186" y1="58" x2="206" y2="58" stroke="#7a1f22" stroke-width="2" />
  <line x1="196" y1="48" x2="196" y2="68" stroke="#7a1f22" stroke-width="2" />

  <rect x="14" y="14" width="228" height="228" rx="20" fill="none" stroke="#ffffff" stroke-opacity="0.20" stroke-width="2" />
</svg>
